<svg width="31" height="31" viewBox="0 0 31 31" fill="none" xmlns="http://www.w3.org/2000/svg">
<g clip-path="url(#clip0)">
<path fill-rule="evenodd" clip-rule="evenodd" d="M9.0415 27.1248C9.0415 25.6981 10.1981 24.5415 11.6248 24.5415C13.0516 24.5415 14.2082 25.6981 14.2082 27.1248C14.2082 28.5516 13.0516 29.7082 11.6248 29.7082C10.1981 29.7082 9.0415 28.5516 9.0415 27.1248Z" fill="white"/>
<path fill-rule="evenodd" clip-rule="evenodd" d="M23.25 27.1248C23.25 25.6981 24.4066 24.5415 25.8333 24.5415C27.2601 24.5415 28.4167 25.6981 28.4167 27.1248C28.4167 28.5516 27.2601 29.7082 25.8333 29.7082C24.4066 29.7082 23.25 28.5516 23.25 27.1248Z" fill="white"/>
<path fill-rule="evenodd" clip-rule="evenodd" d="M0 1.29167C0 0.578299 0.578299 0 1.29167 0H6.45833C7.07398 0 7.60406 0.434498 7.72488 1.03817L8.80972 6.45833H29.7083C30.0933 6.45833 30.4582 6.63003 30.7036 6.92663C30.9489 7.22324 31.0492 7.61383 30.9771 7.99196L28.9086 18.8387C28.7315 19.7307 28.2461 20.532 27.5377 21.1023C26.8328 21.6697 25.9517 21.9725 25.0472 21.9583H12.5145C11.61 21.9725 10.7288 21.6697 10.024 21.1023C9.31582 20.5323 8.83065 19.7314 8.6533 18.8398C8.65323 18.8395 8.65337 18.8402 8.6533 18.8398L6.49552 8.05897C6.48677 8.02331 6.47949 7.98706 6.47377 7.95031L5.39958 2.58333H1.29167C0.578299 2.58333 0 2.00503 0 1.29167ZM9.32678 9.04167L11.1869 18.3354C11.246 18.6328 11.4077 18.8999 11.6439 19.09C11.88 19.2801 12.1755 19.381 12.4786 19.3752L12.5033 19.375H25.0583L25.0831 19.3752C25.3862 19.381 25.6817 19.2801 25.9178 19.09C26.1528 18.9008 26.3142 18.6353 26.3739 18.3396L28.1471 9.04167H9.32678Z" fill="white"/>
</g>
<defs>
<clipPath id="clip0">
<path d="M0 0H31V31H0V0Z" fill="white"/>
</clipPath>
</defs>
</svg>
