<svg width="26" height="24" viewBox="0 0 26 24" fill="none" xmlns="http://www.w3.org/2000/svg">
<path d="M25.605 4.87662C25.1901 3.69287 24.4614 2.62502 23.4977 1.7885C22.5331 0.951216 21.3728 0.38038 20.1424 0.137765C19.6788 0.0463463 19.2022 0 18.7257 0C17.3356 0 15.9835 0.393095 14.8158 1.13681C14.1129 1.58454 13.4954 2.14608 12.9867 2.79541C12.4782 2.14733 11.8611 1.58685 11.1589 1.14C9.99179 0.397368 8.64069 0.00483105 7.2516 0.00483105C7.25152 0.00483105 7.25163 0.00483105 7.25157 0.00483105C6.09414 0.00483105 4.93248 0.290713 3.8925 0.831501C2.8533 1.37189 1.95201 2.15813 1.28618 3.10523C0.603935 4.07561 0.188358 5.16221 0.050965 6.3348C-0.0693336 7.36172 0.0235713 8.46411 0.327158 9.61133C0.928545 11.8839 2.25966 13.9568 3.27044 15.2956C5.46817 18.2064 8.49 20.8485 12.5086 23.373L12.9886 23.6746L13.4687 23.373C18.4117 20.2678 21.8619 16.9894 24.0163 13.3504C25.2553 11.2575 25.9008 9.39303 25.9897 7.65042C26.0392 6.67924 25.9098 5.746 25.605 4.87662Z" fill="white"/>
<path d="M12.9889 21.5394C9.39872 19.2275 6.68736 16.8255 4.71119 14.208C3.79788 12.9984 2.59872 11.1389 2.07232 9.1497C1.82692 8.22232 1.75007 7.34599 1.84393 6.54496C1.94602 5.67367 2.25521 4.86571 2.76297 4.14349C3.26317 3.43202 3.9418 2.84056 4.72544 2.43308C5.50938 2.02544 6.38297 1.80998 7.25182 1.80998C8.29706 1.80998 9.31309 2.10497 10.19 2.66301C11.0449 3.20696 11.7321 3.97427 12.1774 4.88201L12.9885 6.53551L13.7983 4.88132C14.2431 3.97249 14.9303 3.20417 15.7857 2.65943C16.6632 2.10056 17.6798 1.80518 18.7259 1.80518C19.0854 1.80518 19.4446 1.84006 19.7934 1.90883C20.7155 2.09066 21.5874 2.52047 22.3147 3.1518C23.0418 3.78286 23.5906 4.5858 23.9018 5.47379C24.1287 6.12107 24.2247 6.82253 24.1872 7.55863C24.1136 9.00209 23.5497 10.5958 22.4633 12.4309C20.5279 15.7 17.4254 18.6835 12.9889 21.5394Z" fill="#FF4964"/>
</svg>
