<svg width="24" height="30" viewBox="0 0 24 30" fill="none" xmlns="http://www.w3.org/2000/svg">
<path d="M22.7606 7.82623H19.8258C19.8258 5.65803 18.9594 3.64176 17.3862 2.14879C15.8139 0.656644 13.7522 -0.102966 11.5804 0.0112334C9.54741 0.11764 7.66061 1.05051 6.26788 2.63793C5.00249 4.0801 4.26984 5.90951 4.18265 7.82629H1.23902C0.698782 7.82629 0.260742 8.26428 0.260742 8.80457V29.0218C0.260742 29.562 0.698722 30.0001 1.23902 30.0001H22.7606C23.3008 30.0001 23.7389 29.5621 23.7389 29.0218V8.80451C23.7389 8.26422 23.3009 7.82623 22.7606 7.82623ZM11.6826 1.96504C13.3133 1.87979 14.8603 2.44891 16.0393 3.56793C17.2193 4.68777 17.8693 6.20002 17.8693 7.82623H6.14232C6.3287 4.71092 8.74221 2.11902 11.6826 1.96504Z" fill="white"/>
<path d="M21.7824 28.0435H2.21729V24.1304H21.7824V28.0435Z" fill="#389DFF"/>
<path d="M21.7825 22.1739H2.21729V9.78271H4.17378V12.7175C4.17378 13.2577 4.61177 13.6958 5.15207 13.6958C5.69237 13.6958 6.13035 13.2578 6.13035 12.7175V9.78271H17.8694V12.7175C17.8694 13.2577 18.3074 13.6958 18.8477 13.6958C19.388 13.6958 19.826 13.2578 19.826 12.7175V9.78271H21.7825V22.1739Z" fill="#389DFF"/>
</svg>
