<svg width="26" height="22" viewBox="0 0 26 22" fill="none" xmlns="http://www.w3.org/2000/svg">
<path d="M0.862149 21.9266C0.871064 21.9266 0.880857 21.9266 0.889772 21.9258C1.30087 21.912 1.56008 21.5935 1.595 21.184C1.62262 20.8826 2.43185 13.5896 13.8141 13.5977L13.8393 18.2606C13.8393 18.5751 14.0205 18.861 14.3049 18.9951C14.5868 19.13 14.9256 19.0885 15.1669 18.8879L25.7033 10.1592C25.8918 10.0048 26.0007 9.77328 25.9999 9.53035C25.9991 9.28661 25.8894 9.05583 25.7009 8.90232L15.1654 0.254967C14.9224 0.0567449 14.5868 0.0185188 14.3041 0.15096C14.0205 0.285832 13.8402 0.571853 13.8402 0.884618L13.815 5.44515C9.0928 5.59549 5.43659 7.114 3.06569 9.88789C-0.792044 14.4021 0.069193 20.9622 0.10904 21.2352C0.169081 21.6334 0.460775 21.9266 0.862149 21.9266ZM14.6519 11.9598C14.6511 11.9598 14.6502 11.9598 14.6502 11.9598C6.51955 11.9647 3.41256 14.7101 1.6389 17.1346C1.89811 15.1919 2.65614 12.8511 4.30466 10.9385C6.49679 8.397 10.0287 7.05801 14.6518 7.05801C15.1011 7.05801 15.4643 6.69479 15.4643 6.24553V2.59493L23.9053 9.53528L15.4643 16.5407V12.7723C15.4643 12.5562 15.379 12.349 15.2255 12.1971C15.0735 12.0451 14.8672 11.9598 14.6519 11.9598Z" fill="white"/>
</svg>
