<svg width="17" height="10" viewBox="0 0 17 10" fill="none" xmlns="http://www.w3.org/2000/svg">
<path d="M9.49004 9.6975C9.29683 9.89095 9.03471 9.99976 8.76129 10H8.23879C7.96597 9.99683 7.70491 9.88847 7.51004 9.6975L0.456291 2.63C0.326139 2.50091 0.25293 2.32519 0.25293 2.14187C0.25293 1.95856 0.326139 1.78284 0.456291 1.65375L1.43254 0.6775C1.55927 0.548162 1.73272 0.475277 1.91379 0.475277C2.09486 0.475277 2.26832 0.548162 2.39504 0.6775L8.50004 6.79625L14.605 0.6775C14.7341 0.547347 14.9099 0.474138 15.0932 0.474138C15.2765 0.474138 15.4522 0.547347 15.5813 0.6775L16.5438 1.65375C16.6739 1.78284 16.7472 1.95856 16.7472 2.14187C16.7472 2.32519 16.6739 2.50091 16.5438 2.63L9.49004 9.6975Z" fill="#4F4F4F"/>
</svg>
