<svg width="12" height="12" viewBox="0 0 12 12" fill="none" xmlns="http://www.w3.org/2000/svg">
<path d="M11.0025 6.94398L11.9874 2.61065C12.0585 2.29778 11.8206 1.99984 11.4998 1.99984H3.31683L3.12588 1.0663C3.07829 0.833608 2.87354 0.666504 2.63602 0.666504H0.5C0.223854 0.666504 0 0.890358 0 1.1665V1.49984C0 1.77598 0.223854 1.99984 0.5 1.99984H1.9559L3.4194 9.15473C3.06927 9.35609 2.83333 9.73363 2.83333 10.1665C2.83333 10.8108 3.35567 11.3332 4 11.3332C4.64433 11.3332 5.16667 10.8108 5.16667 10.1665C5.16667 9.83996 5.03236 9.54494 4.81617 9.33317H9.18381C8.96765 9.54494 8.83333 9.83996 8.83333 10.1665C8.83333 10.8108 9.35567 11.3332 10 11.3332C10.6443 11.3332 11.1667 10.8108 11.1667 10.1665C11.1667 9.70459 10.8982 9.30542 10.5088 9.1164L10.6237 8.61065C10.6948 8.29778 10.457 7.99984 10.1361 7.99984H4.54411L4.40775 7.33317H10.5149C10.7484 7.33317 10.9508 7.17163 11.0025 6.94398Z" fill="white"/>
</svg>
