<svg width="32" height="32" viewBox="0 0 32 32" fill="none" xmlns="http://www.w3.org/2000/svg">
<path fill-rule="evenodd" clip-rule="evenodd" d="M16.0002 4.00016C9.37274 4.00016 4.00016 9.37274 4.00016 16.0002C4.00016 22.6276 9.37274 28.0002 16.0002 28.0002C22.6276 28.0002 28.0002 22.6276 28.0002 16.0002C28.0002 9.37274 22.6276 4.00016 16.0002 4.00016ZM1.3335 16.0002C1.3335 7.89999 7.89999 1.3335 16.0002 1.3335C24.1003 1.3335 30.6668 7.89999 30.6668 16.0002C30.6668 24.1003 24.1003 30.6668 16.0002 30.6668C7.89999 30.6668 1.3335 24.1003 1.3335 16.0002Z" fill="white"/>
<path fill-rule="evenodd" clip-rule="evenodd" d="M12.7042 9.49127C13.1377 9.25924 13.6638 9.28467 14.0729 9.55743L22.0729 14.8908C22.4439 15.1381 22.6667 15.5544 22.6667 16.0002C22.6667 16.446 22.4439 16.8623 22.0729 17.1096L14.0729 22.4429C13.6638 22.7157 13.1377 22.7411 12.7042 22.5091C12.2706 22.277 12 21.8252 12 21.3335V10.6668C12 10.1751 12.2706 9.72329 12.7042 9.49127ZM14.6667 13.1582V18.8421L18.9296 16.0002L14.6667 13.1582Z" fill="white"/>
</svg>
