<svg width="26" height="26" viewBox="0 0 26 26" fill="none" xmlns="http://www.w3.org/2000/svg">
<path d="M25.9055 9.9208C25.6802 9.22739 25.092 8.73154 24.3706 8.62674L17.6919 7.6563L14.7051 1.6044C14.3824 0.950582 13.7291 0.544434 13 0.544434C12.2709 0.544434 11.6175 0.950582 11.2949 1.6044L8.3081 7.6563L1.62948 8.62674C0.907958 8.73154 0.319803 9.22739 0.0944735 9.9208C-0.1308 10.6142 0.053525 11.3611 0.575619 11.87L5.40834 16.5808L4.26749 23.2324C4.14425 23.951 4.43405 24.6636 5.02396 25.0922C5.35099 25.3297 5.73745 25.4553 6.14168 25.4553C6.44862 25.4553 6.75455 25.3798 7.02637 25.2369L12.9999 22.0964L18.9736 25.2369C19.2453 25.3798 19.5512 25.4553 19.8582 25.4553C20.2625 25.4553 20.649 25.3298 20.9761 25.0922C21.5659 24.6636 21.8557 23.951 21.7325 23.2325L20.5916 16.5808L25.4244 11.87C25.9465 11.3611 26.1308 10.6142 25.9055 9.9208ZM24.1923 10.6062L19.0274 15.6407C18.8194 15.8434 18.7245 16.1355 18.7736 16.4218L19.9929 23.5308C20.0017 23.5824 19.981 23.6336 19.9386 23.6643C19.9089 23.6859 19.8785 23.6904 19.8582 23.6904C19.8359 23.6904 19.8146 23.6852 19.7948 23.6748L13.4106 20.3184C13.2821 20.2508 13.141 20.217 13 20.217C12.8589 20.217 12.7179 20.2508 12.5893 20.3184L6.20508 23.6748C6.18528 23.6853 6.16396 23.6905 6.14162 23.6905C6.12137 23.6905 6.09089 23.686 6.06125 23.6645C6.01889 23.6337 5.99813 23.5825 6.00695 23.5309L7.22625 16.4219C7.27534 16.1357 7.18043 15.8436 6.97247 15.6409L1.80752 10.6063C1.77003 10.5698 1.75679 10.5161 1.77297 10.4664C1.7892 10.4165 1.83139 10.3809 1.88326 10.3734L9.02097 9.33621C9.3084 9.29441 9.55686 9.11393 9.68542 8.85348L12.8775 2.38553C12.9007 2.33859 12.9476 2.30941 13 2.30941C13.0524 2.30941 13.0992 2.33859 13.1224 2.38553L16.3144 8.85331C16.443 9.11376 16.6915 9.2943 16.9789 9.33604L24.1167 10.3732C24.1685 10.3808 24.2107 10.4164 24.2269 10.4662C24.2431 10.516 24.2298 10.5696 24.1923 10.6062Z" fill="white"/>
</svg>
