<svg width="26" height="26" viewBox="0 0 26 26" fill="none" xmlns="http://www.w3.org/2000/svg">
<path d="M25.9055 9.92092C25.6802 9.22751 25.092 8.73166 24.3706 8.62686L17.6919 7.65642L14.7051 1.60452C14.3824 0.950704 13.7291 0.544556 13 0.544556C12.2709 0.544556 11.6175 0.950704 11.2949 1.60452L8.3081 7.65642L1.62948 8.62686C0.907958 8.73166 0.319803 9.22751 0.0944735 9.92092C-0.1308 10.6143 0.053525 11.3612 0.575619 11.8702L5.40834 16.5809L4.26749 23.2325C4.14425 23.9512 4.43405 24.6638 5.02396 25.0924C5.35099 25.3298 5.73745 25.4555 6.14168 25.4555C6.44862 25.4555 6.75455 25.3799 7.02637 25.237L12.9999 22.0966L18.9736 25.237C19.2453 25.38 19.5512 25.4555 19.8582 25.4555C20.2625 25.4555 20.649 25.3299 20.9761 25.0924C21.5659 24.6638 21.8557 23.9512 21.7325 23.2326L20.5916 16.5809L25.4244 11.8701C25.9465 11.3612 26.1308 10.6143 25.9055 9.92092ZM24.1923 10.6063L19.0274 15.6408C18.8194 15.8435 18.7245 16.1357 18.7736 16.4219L19.9929 23.5309C20.0017 23.5825 19.981 23.6337 19.9386 23.6644C19.9089 23.686 19.8785 23.6905 19.8582 23.6905C19.8359 23.6905 19.8146 23.6853 19.7948 23.6749L13.4106 20.3185C13.2821 20.2509 13.141 20.2172 13 20.2172C12.8589 20.2172 12.7179 20.2509 12.5893 20.3186L6.20508 23.6749C6.18528 23.6854 6.16396 23.6907 6.14162 23.6907C6.12137 23.6907 6.09089 23.6861 6.06125 23.6646C6.01889 23.6338 5.99813 23.5826 6.00695 23.531L7.22625 16.4221C7.27534 16.1358 7.18043 15.8437 6.97247 15.641L1.80752 10.6065C1.77003 10.5699 1.75679 10.5163 1.77297 10.4665C1.7892 10.4167 1.83139 10.381 1.88326 10.3735L9.02097 9.33633C9.3084 9.29453 9.55686 9.11405 9.68542 8.8536L12.8775 2.38566C12.9007 2.33871 12.9476 2.30953 13 2.30953C13.0524 2.30953 13.0992 2.33871 13.1224 2.38566L16.3144 8.85343C16.443 9.11388 16.6915 9.29442 16.9789 9.33616L24.1167 10.3733C24.1685 10.3809 24.2107 10.4165 24.2269 10.4663C24.2431 10.5161 24.2298 10.5698 24.1923 10.6063Z" fill="black"/>
</svg>
