<svg width="26" height="24" viewBox="0 0 26 24" fill="none" xmlns="http://www.w3.org/2000/svg">
<path d="M25.605 4.87662C25.1901 3.69287 24.4614 2.62502 23.4977 1.7885C22.5331 0.951216 21.3728 0.38038 20.1424 0.137765C19.6788 0.0463463 19.2022 0 18.7257 0C17.3356 0 15.9835 0.393095 14.8158 1.13681C14.1129 1.58454 13.4954 2.14608 12.9867 2.79541C12.4782 2.14733 11.8611 1.58685 11.1589 1.14C9.99179 0.397368 8.64069 0.00483105 7.2516 0.00483105C7.25152 0.00483105 7.25163 0.00483105 7.25157 0.00483105C6.09414 0.00483105 4.93248 0.290713 3.8925 0.831501C2.8533 1.37189 1.95201 2.15813 1.28618 3.10523C0.603935 4.07561 0.188358 5.16221 0.050965 6.3348C-0.0693336 7.36172 0.0235713 8.46411 0.327158 9.61133C0.928545 11.8839 2.25966 13.9568 3.27044 15.2956C5.46817 18.2064 8.49 20.8485 12.5086 23.373L12.9886 23.6746L13.4687 23.373C18.4117 20.2678 21.8619 16.9894 24.0163 13.3504C25.2553 11.2575 25.9008 9.39303 25.9897 7.65042C26.0392 6.67924 25.9098 5.746 25.605 4.87662ZM12.9887 21.5393C9.3985 19.2274 6.68714 16.8254 4.71097 14.2079C3.79766 12.9983 2.5985 11.1388 2.0721 9.14959C1.8267 8.22221 1.74985 7.34588 1.84371 6.54485C1.9458 5.67356 2.25499 4.8656 2.76275 4.14338C3.26295 3.43192 3.94158 2.84045 4.72522 2.43297C5.50916 2.02533 6.38275 1.80987 7.2516 1.80987C8.29683 1.80987 9.31287 2.10486 10.1898 2.6629C11.0447 3.20685 11.7319 3.97416 12.1772 4.8819L12.9883 6.5354L13.7981 4.88121C14.2429 3.97238 14.9301 3.20406 15.7855 2.65932C16.663 2.10045 17.6796 1.80507 18.7257 1.80507C19.0852 1.80507 19.4444 1.83995 19.7932 1.90872C20.7153 2.09055 21.5872 2.52036 22.3145 3.15169C23.0416 3.78275 23.5904 4.58569 23.9016 5.47368C24.1285 6.12096 24.2245 6.82242 24.187 7.55852C24.1134 9.00198 23.5495 10.5957 22.4631 12.4308C20.5277 15.6999 17.4252 18.6834 12.9887 21.5393Z" fill="white"/>
</svg>
