<svg width="19" height="18" viewBox="0 0 19 18" fill="none" xmlns="http://www.w3.org/2000/svg">
<path d="M11.1524 9.0009L18.2307 1.92263C18.6705 1.48324 18.6705 0.770312 18.2307 0.330922C17.791 -0.108843 17.0788 -0.108843 16.639 0.330922L9.56073 7.40919L2.48208 0.330922C2.04232 -0.108843 1.33014 -0.108843 0.890371 0.330922C0.450605 0.770312 0.450605 1.48324 0.890371 1.92263L7.96902 9.0009L0.890371 16.0792C0.450605 16.5186 0.450605 17.2315 0.890371 17.6709C1.11025 17.8904 1.39843 18.0003 1.68623 18.0003C1.97403 18.0003 2.2622 17.8904 2.48208 17.6705L9.56073 10.5922L16.639 17.6705C16.8589 17.8904 17.1471 18.0003 17.4349 18.0003C17.7227 18.0003 18.0108 17.8904 18.2307 17.6705C18.6705 17.2311 18.6705 16.5182 18.2307 16.0788L11.1524 9.0009Z" fill="black"/>
</svg>
