<svg width="13" height="8" viewBox="0 0 13 8" fill="none" xmlns="http://www.w3.org/2000/svg">
<path d="M12.85 3.47024C11.5774 1.3902 9.20404 0 6.5 0C3.79483 0 1.42197 1.39117 0.150007 3.47024C0.0517959 3.63076 0 3.81369 0 4.00001C0 4.18633 0.0517959 4.36926 0.150007 4.52978C1.42258 6.6098 3.79596 8 6.5 8C9.20517 8 11.578 6.60883 12.85 4.52976C12.9482 4.36924 13 4.18632 13 4C13 3.81368 12.9482 3.63076 12.85 3.47024ZM6.5 6.95652C4.18537 6.95652 2.16462 5.76737 1.08334 4C2.07994 2.37102 3.87466 1.23326 5.96199 1.06507C6.18308 1.2843 6.31945 1.58326 6.31945 1.91304C6.31945 2.58539 5.75358 3.13043 5.05556 3.13043C4.35753 3.13043 3.79167 2.58539 3.79167 1.91304L3.79169 1.91213C3.56133 2.32702 3.43056 2.80096 3.43056 3.30435C3.43056 4.9372 4.80479 6.26087 6.5 6.26087C8.19521 6.26087 9.56944 4.9372 9.56944 3.30435C9.56944 2.62976 9.33472 2.00807 8.93987 1.51054C10.1947 2.01387 11.2398 2.89361 11.9167 4C10.8354 5.76737 8.81463 6.95652 6.5 6.95652Z" fill="white"/>
</svg>
