<svg width="27" height="22" viewBox="0 0 27 22" fill="none" xmlns="http://www.w3.org/2000/svg">
<path d="M1.14242 21.9266C1.15134 21.9266 1.16113 21.9266 1.17005 21.9258C1.58115 21.912 1.84035 21.5935 1.87527 21.184C1.90289 20.8826 2.71213 13.5896 14.0944 13.5977L14.1196 18.2606C14.1196 18.5751 14.3008 18.861 14.5851 18.9951C14.8671 19.13 15.2059 19.0885 15.4472 18.8879L25.9836 10.1592C26.1721 10.0048 26.281 9.77328 26.2802 9.53035C26.2794 9.28661 26.1697 9.05583 25.9812 8.90232L15.4456 0.254967C15.2027 0.0567449 14.8671 0.0185188 14.5844 0.15096C14.3008 0.285832 14.1205 0.571853 14.1205 0.884618L14.0953 5.44515C9.37307 5.59549 5.71686 7.114 3.34596 9.88789C-0.51177 14.4021 0.349466 20.9622 0.389313 21.2352C0.449354 21.6334 0.741048 21.9266 1.14242 21.9266ZM14.9321 11.9598C14.9313 11.9598 14.9305 11.9598 14.9305 11.9598C6.79983 11.9647 3.69284 14.7101 1.91917 17.1346C2.17838 15.1919 2.93642 12.8511 4.58494 10.9385C6.77707 8.39701 10.3089 7.05801 14.9321 7.05801C15.3814 7.05801 15.7445 6.69479 15.7445 6.24553V2.59494L24.1856 9.53528L15.7446 16.5407V12.7723C15.7446 12.5562 15.6593 12.349 15.5057 12.1971C15.3538 12.0451 15.1474 11.9598 14.9321 11.9598Z" fill="black"/>
</svg>
