<svg width="10" height="17" viewBox="0 0 10 17" fill="none" xmlns="http://www.w3.org/2000/svg">
<path d="M0.3025 9.49004C0.109048 9.29683 0.000240697 9.03471 0 8.76129V8.23879C0.00316801 7.96597 0.111535 7.70491 0.3025 7.51004L7.37 0.456291C7.49909 0.326139 7.67481 0.25293 7.85813 0.25293C8.04144 0.25293 8.21716 0.326139 8.34625 0.456291L9.3225 1.43254C9.45184 1.55927 9.52472 1.73272 9.52472 1.91379C9.52472 2.09486 9.45184 2.26832 9.3225 2.39504L3.20375 8.50004L9.3225 14.605C9.45265 14.7341 9.52586 14.9099 9.52586 15.0932C9.52586 15.2765 9.45265 15.4522 9.3225 15.5813L8.34625 16.5438C8.21716 16.6739 8.04144 16.7472 7.85813 16.7472C7.67481 16.7472 7.49909 16.6739 7.37 16.5438L0.3025 9.49004Z" fill="#4F4F4F"/>
</svg>
