<svg width="12" height="12" viewBox="0 0 12 12" fill="none" xmlns="http://www.w3.org/2000/svg">
<path fill-rule="evenodd" clip-rule="evenodd" d="M5.99984 0.166504C2.77818 0.166504 0.166504 2.77818 0.166504 5.99984C0.166504 9.2215 2.77818 11.8332 5.99984 11.8332C9.2215 11.8332 11.8332 9.2215 11.8332 5.99984C11.8332 4.45274 11.2186 2.96901 10.1246 1.87505C9.03067 0.781085 7.54693 0.166504 5.99984 0.166504ZM5.99984 10.6665C3.42251 10.6665 1.33317 8.57717 1.33317 5.99984C1.33317 3.42251 3.42251 1.33317 5.99984 1.33317C8.57717 1.33317 10.6665 3.42251 10.6665 5.99984C10.6665 7.23751 10.1748 8.4245 9.29967 9.29967C8.4245 10.1748 7.23751 10.6665 5.99984 10.6665ZM6.51317 2.7915V5.78984L8.63067 7.90734C8.74254 8.02273 8.74254 8.20611 8.63067 8.3215L8.3215 8.63067C8.20611 8.74254 8.02273 8.74254 7.90734 8.63067L5.574 6.29734C5.52055 6.24247 5.48937 6.16972 5.4865 6.09317V2.7915C5.4865 2.63042 5.61709 2.49984 5.77817 2.49984H6.2215C6.38259 2.49984 6.51317 2.63042 6.51317 2.7915Z" fill="#243244"/>
</svg>
