<svg width="76" height="85" viewBox="0 0 76 85" fill="none" xmlns="http://www.w3.org/2000/svg">
<path fill-rule="evenodd" clip-rule="evenodd" d="M14.0073 67.3256C17.7522 70.3969 22.1019 72.7581 26.8503 74.2039C30.3156 75.2589 39.2583 78.2741 37.7 84.0986C40.4894 83.0215 42.5476 82.3429 44.8078 81.3183C51.4217 78.3209 57.0879 74.506 61.6801 70.039C70.4978 61.4623 75.3553 50.4827 75.3553 38.2745C75.3553 32.9592 74.2507 27.9016 72.2592 23.3191C70.3651 18.9616 67.6688 15.0335 64.3565 11.7212C59.9207 7.28557 54.3802 3.95428 48.1834 2.17557C44.8866 1.22927 41.4041 0.722656 37.8033 0.722656C27.4335 0.722656 18.0457 4.92574 11.25 11.7212C8.04685 14.9246 5.4196 18.7039 3.53696 22.8904C1.42604 27.5856 0.251465 32.7929 0.251465 38.2745C0.251465 49.9825 5.60943 60.4388 14.0073 67.3256Z" fill="#E92D3E"/>
</svg>
