<svg width="103" height="108" viewBox="0 0 103 108" fill="none" xmlns="http://www.w3.org/2000/svg">
<path fill-rule="evenodd" clip-rule="evenodd" d="M40.1759 86.202C44.8533 87.4585 49.7894 87.8189 54.7119 87.181C58.3042 86.7152 67.6951 85.7802 68.6737 91.7295C70.772 89.5994 72.3681 88.1333 74.0058 86.2688C78.7984 80.8137 82.3908 75.0038 84.736 69.0421C89.2391 57.5951 89.1441 45.5894 84.1165 34.4644C81.9276 29.6208 78.8382 25.4669 75.1362 22.1112C71.6157 18.9203 67.541 16.4512 63.1586 14.7968C57.2896 12.5816 50.8689 11.8275 44.4895 12.7586C41.0955 13.254 37.7134 14.2264 34.4321 15.7093C24.9825 19.9798 18.1586 27.676 14.7644 36.667C13.1647 40.9053 12.3269 45.4312 12.3354 50.0215C12.3454 55.1694 13.4195 60.3983 15.6769 65.3935C20.4985 76.0627 29.6871 83.3847 40.1759 86.202Z" fill="#FF602E"/>
</svg>
