<svg width="104" height="113" viewBox="0 0 104 113" fill="none" xmlns="http://www.w3.org/2000/svg">
<path fill-rule="evenodd" clip-rule="evenodd" d="M55.3332 90.6716C60.1681 90.3886 64.966 89.1738 69.436 87.0158C72.698 85.4408 81.3146 81.5915 84.1198 86.9285C85.4391 84.2452 86.4913 82.3506 87.4573 80.0648C90.2847 73.3764 91.8613 66.7301 92.2064 60.3329C92.8692 48.0499 88.9922 36.687 80.7124 27.7157C77.1075 23.8097 72.8656 20.8422 68.2942 18.8254C63.9469 16.9078 59.3015 15.8499 54.6209 15.6623C48.3528 15.4112 42.022 16.7208 36.2619 19.6165C33.1974 21.1571 30.2947 23.1467 27.6486 25.5888C20.0282 32.6218 15.9801 42.0774 15.595 51.6801C15.4138 56.2066 16.0463 60.7657 17.5021 65.119C19.1353 70.001 21.8038 74.6243 25.5215 78.6525C33.4621 87.2562 44.4912 91.3063 55.3332 90.6716Z" fill="#FFAE06"/>
</svg>
